<?xml version="1.0" standalone="no"?>
<!DOCTYPE svg PUBLIC "-//W3C//DTD SVG 20010904//EN"
 "http://www.w3.org/TR/2001/REC-SVG-20010904/DTD/svg10.dtd">
<svg version="1.0" xmlns="http://www.w3.org/2000/svg"
 width="590.000000pt" height="590.000000pt" viewBox="0 0 590.000000 590.000000"
 preserveAspectRatio="xMidYMid meet">
<metadata>
Created by potrace 1.14, written by Peter Selinger 2001-2017
</metadata>
<g transform="translate(0.000000,590.000000) scale(0.100000,-0.100000)"
fill="#000000" stroke="none">
<path d="M2730 5893 c-77 -5 -280 -34 -380 -54 -690 -140 -1323 -542 -1756
-1115 -488 -647 -686 -1458 -553 -2264 196 -1186 1107 -2139 2290 -2394 192
-42 341 -58 569 -61 362 -6 650 36 965 140 455 151 844 392 1180 730 484 488
778 1119 844 1810 14 143 6 507 -13 650 -71 512 -263 982 -567 1385 -507 672
-1263 1094 -2094 1169 -94 8 -384 11 -485 4z m590 -158 c764 -111 1405 -483
1866 -1085 234 -304 432 -731 508 -1095 104 -498 82 -992 -64 -1450 -385
-1205 -1517 -2007 -2770 -1962 -414 15 -782 107 -1145 287 -395 195 -703 443
-974 785 -255 321 -452 737 -535 1134 -49 233 -60 341 -60 601 0 323 34 559
120 831 286 902 980 1589 1885 1863 169 51 363 86 604 110 85 9 465 -4 565
-19z"/>
<path d="M2915 5248 c-44 -24 -45 -31 -45 -290 l0 -249 25 -24 c15 -16 36 -25
55 -25 19 0 40 9 55 25 l25 24 0 240 c0 255 -4 281 -47 300 -30 14 -42 13 -68
-1z"/>
<path d="M4103 4797 c-55 -15 -1537 -1032 -1552 -1065 -6 -13 -11 -30 -11 -38
0 -21 46 -64 69 -64 23 0 -24 -32 836 560 l690 475 85 -1 c66 0 97 -5 137 -23
104 -46 113 -29 -155 -292 -131 -129 -387 -375 -569 -547 -182 -173 -334 -323
-336 -334 -14 -51 39 -101 88 -82 29 11 568 519 964 910 l285 280 -17 25 c-37
52 -120 127 -170 152 -106 53 -245 71 -344 44z"/>
<path d="M1555 4775 c-46 -45 -37 -64 123 -275 121 -160 153 -196 180 -204 27
-7 38 -6 60 11 30 23 42 58 31 90 -12 33 -286 390 -305 397 -32 12 -65 5 -89
-19z"/>
<path d="M925 3966 c-170 -55 -345 -180 -398 -283 -24 -46 -36 -132 -27 -185
22 -114 81 -168 258 -233 144 -54 503 -178 922 -320 395 -134 413 -141 422
-156 4 -8 96 -304 204 -659 108 -355 238 -784 290 -955 l95 -310 47 -48 c105
-107 215 -157 350 -158 67 -1 183 15 182 25 -7 43 -227 1852 -226 1853 2 3
748 -215 1191 -347 269 -80 293 -82 394 -34 124 60 304 282 469 579 98 176
268 539 317 676 l13 36 -196 58 c-109 32 -200 58 -204 59 -3 0 -28 -15 -55
-35 -26 -20 -195 -142 -375 -273 l-326 -236 -389 120 c-213 67 -480 150 -593
185 -1982 618 -2139 665 -2218 665 -52 -1 -100 -8 -147 -24z m456 -195 c1681
-525 2906 -901 2919 -898 9 2 182 125 384 272 l367 267 95 -27 c52 -16 94 -29
94 -30 0 -11 -109 -245 -180 -385 -206 -413 -411 -682 -537 -706 -19 -3 -147
31 -383 101 -698 208 -1251 367 -1257 362 -3 -3 47 -434 112 -957 64 -524 114
-958 111 -965 -15 -39 -184 26 -253 97 -37 39 -46 58 -86 193 -25 83 -117 386
-205 675 -156 511 -219 719 -306 1004 l-43 139 -452 153 c-561 190 -960 330
-1026 359 -85 38 -110 81 -93 157 24 111 275 267 429 268 42 0 118 -19 310
-79z"/>
<path d="M1016 2374 c-115 -41 -218 -81 -228 -91 -29 -26 -24 -87 8 -112 15
-12 36 -21 47 -21 18 0 260 81 423 141 73 27 94 80 53 133 -31 40 -69 33 -303
-50z"/>
<path d="M3960 1600 c-28 -28 -34 -63 -16 -96 8 -16 75 -108 148 -204 88 -116
142 -178 160 -184 61 -21 125 44 99 100 -15 34 -255 352 -288 382 -30 27 -76
29 -103 2z"/>
<path d="M1969 1510 c-28 -16 -269 -414 -269 -444 0 -55 70 -93 120 -66 28 15
270 412 270 444 0 55 -73 94 -121 66z"/>
</g>
</svg>
